# xmcd
# Track frame offsets:
# 150
# 20210
# 39869
# 55058
# 72073
# 87850
# 100409
# 122105
# 135936
# 157919
#
# Disc length: 2270 seconds
# Revision: 0
# Processed by: cddbd v1.5.1PL0 Copyright (c) Steve Scherf et al.
# Submitted via: VisiTrax 2.9.10.220 - For more info visit www.synapsa.com
#
DISCID=7708dc0a
DTITLE=Gary Sandusky - Simple Man
DYEAR=2002
DGENRE=
TTITLE0=Ain't It Funny
TTITLE1=Simple Man
TTITLE2=A Million Miles
TTITLE3=Believin' Man
TTITLE4=Flame of Your Passion
TTITLE5=You Take Your Chances
TTITLE6=One Set of Sheets
TTITLE7=In the Shadow of the Rockies
TTITLE8=The Road to Being Alone
TTITLE9=My Tires Are Hummin'
EXTD=
EXTT0=
EXTT1=
EXTT2=
EXTT3=
EXTT4=
EXTT5=
EXTT6=
EXTT7=
EXTT8=
EXTT9=
PLAYORDER=
